<svg xmlns="http://www.w3.org/2000/svg" xmlns:xlink="http://www.w3.org/1999/xlink" width="100" zoomAndPan="magnify" viewBox="0 0 75 74.999997" height="100" preserveAspectRatio="xMidYMid meet" version="1.0"><metadata/><defs><clipPath id="4853cc6091"><path d="M 64 11 L 67.5 11 L 67.5 36 L 64 36 Z M 64 11 " clip-rule="nonzero"/></clipPath><clipPath id="d0fe1a07e0"><path d="M 40 39 L 57 39 L 57 67.5 L 40 67.5 Z M 40 39 " clip-rule="nonzero"/></clipPath><clipPath id="23ee2d8bab"><path d="M 7.5 15 L 39 15 L 39 58 L 7.5 58 Z M 7.5 15 " clip-rule="nonzero"/></clipPath><clipPath id="123d99029e"><path d="M 60 36 L 67 36 L 67 67.5 L 60 67.5 Z M 60 36 " clip-rule="nonzero"/></clipPath><clipPath id="ca1d0aa27a"><path d="M 37 7.5 L 66 7.5 L 66 20 L 37 20 Z M 37 7.5 " clip-rule="nonzero"/></clipPath><clipPath id="8d0eda3ae6"><path d="M 64 11 L 67.5 11 L 67.5 36 L 64 36 Z M 64 11 " clip-rule="nonzero"/></clipPath><clipPath id="1d3520e7bb"><path d="M 61 7.5 L 66 7.5 L 66 12 L 61 12 Z M 61 7.5 " clip-rule="nonzero"/></clipPath><clipPath id="d4470b0d0c"><path d="M 61 64 L 64 64 L 64 67.5 L 61 67.5 Z M 61 64 " clip-rule="nonzero"/></clipPath><clipPath id="3d0e79a37d"><path d="M 40 39 L 57 39 L 57 67.5 L 40 67.5 Z M 40 39 " clip-rule="nonzero"/></clipPath><clipPath id="36f2c6b04a"><path d="M 7.5 15 L 35 15 L 35 58 L 7.5 58 Z M 7.5 15 " clip-rule="nonzero"/></clipPath><clipPath id="3ee987a7d4"><path d="M 7.5 15 L 14 15 L 14 22 L 7.5 22 Z M 7.5 15 " clip-rule="nonzero"/></clipPath></defs><g clip-path="url(#4853cc6091)"><path fill="#ffc05a" d="M 64.210938 11.75 L 67.5 11.75 L 67.5 35.367188 L 64.210938 35.367188 Z M 64.210938 11.75 " fill-opacity="1" fill-rule="nonzero"/></g><path fill="#ffc05a" d="M 58.503906 14.722656 L 61.796875 14.722656 L 61.796875 35.367188 L 58.503906 35.367188 Z M 58.503906 14.722656 " fill-opacity="1" fill-rule="nonzero"/><g clip-path="url(#d0fe1a07e0)"><path fill="#ffc05a" d="M 54.574219 39.367188 L 42.695312 39.367188 C 41.4375 39.367188 40.417969 40.390625 40.417969 41.648438 L 40.417969 64.863281 C 40.417969 66.125 41.4375 67.148438 42.695312 67.148438 L 54.574219 67.148438 C 55.832031 67.148438 56.855469 66.125 56.855469 64.863281 L 56.855469 41.648438 C 56.855469 40.390625 55.832031 39.367188 54.574219 39.367188 Z M 54.574219 39.367188 " fill-opacity="1" fill-rule="nonzero"/></g><path fill="#ffc05a" d="M 52.800781 26 L 56.085938 26 L 56.085938 35.367188 L 52.800781 35.367188 Z M 52.800781 26 " fill-opacity="1" fill-rule="nonzero"/><path fill="#ffc05a" d="M 47.089844 18.324219 L 50.378906 18.324219 L 50.378906 35.367188 L 47.089844 35.367188 Z M 47.089844 18.324219 " fill-opacity="1" fill-rule="nonzero"/><path fill="#ffc05a" d="M 41.386719 23.019531 L 44.675781 23.019531 L 44.675781 35.367188 L 41.386719 35.367188 Z M 41.386719 23.019531 " fill-opacity="1" fill-rule="nonzero"/><g clip-path="url(#23ee2d8bab)"><path fill="#ffc05a" d="M 34.980469 50.960938 L 34.980469 50.957031 L 34.546875 50.265625 L 32.066406 46.296875 C 33.957031 44.722656 34.980469 42.421875 34.980469 40.066406 L 34.980469 15.417969 L 12.910156 15.417969 L 7.5 21.046875 L 7.5 57.828125 L 34.980469 57.828125 L 34.980469 55.160156 L 36.054688 56.878906 C 36.40625 57.441406 37.113281 57.632812 37.636719 57.304688 C 37.960938 57.101562 38.132812 56.742188 38.132812 56.367188 C 38.132812 56.140625 38.070312 55.90625 37.941406 55.699219 Z M 34.980469 50.960938 " fill-opacity="1" fill-rule="nonzero"/></g><g clip-path="url(#123d99029e)"><path fill="#ffc05a" d="M 65.554688 56.089844 C 65.289062 56.089844 65.070312 56.308594 65.070312 56.574219 L 65.070312 63.300781 C 65.070312 63.800781 64.664062 64.203125 64.160156 64.203125 L 63.832031 64.203125 L 63.832031 41.820312 L 62.960938 39.5 C 62.867188 39.253906 62.699219 39.085938 62.5 38.980469 C 62.511719 38.941406 62.527344 38.902344 62.527344 38.859375 L 62.527344 36.871094 C 62.527344 36.605469 62.308594 36.386719 62.042969 36.386719 C 61.773438 36.386719 61.558594 36.605469 61.558594 36.871094 L 61.558594 38.859375 C 61.558594 38.902344 61.570312 38.941406 61.582031 38.980469 C 61.386719 39.085938 61.214844 39.253906 61.121094 39.5 L 60.246094 41.820312 L 60.246094 64.6875 L 61.019531 64.6875 L 61.019531 66.453125 C 61.019531 66.734375 61.132812 66.992188 61.320312 67.175781 C 61.503906 67.363281 61.761719 67.476562 62.042969 67.476562 C 62.601562 67.476562 63.0625 67.019531 63.0625 66.453125 L 63.0625 64.6875 L 63.347656 64.6875 C 63.347656 64.957031 63.566406 65.171875 63.832031 65.171875 L 64.160156 65.171875 C 65.195312 65.171875 66.039062 64.332031 66.039062 63.300781 L 66.039062 56.574219 C 66.039062 56.308594 65.820312 56.089844 65.554688 56.089844 Z M 65.554688 56.089844 " fill-opacity="1" fill-rule="nonzero"/></g><g clip-path="url(#ca1d0aa27a)"><path fill="#ffc05a" d="M 51.164062 12.519531 C 51.417969 12.59375 51.625 12.769531 51.742188 13 C 52.070312 13.652344 52.726562 14.058594 53.457031 14.058594 C 53.773438 14.058594 54.074219 13.984375 54.34375 13.84375 L 62.164062 9.777344 C 62.167969 9.777344 62.171875 9.773438 62.175781 9.769531 L 62.875 11.027344 L 65.25 7.5 L 61 7.664062 L 61.703125 8.925781 L 53.898438 12.984375 C 53.765625 13.054688 53.617188 13.089844 53.457031 13.089844 C 53.09375 13.089844 52.769531 12.890625 52.605469 12.5625 C 52.367188 12.089844 51.953125 11.746094 51.445312 11.59375 C 50.9375 11.441406 50.410156 11.5 49.949219 11.757812 L 38.222656 18.34375 C 37.988281 18.472656 37.90625 18.769531 38.035156 19 C 38.125 19.160156 38.289062 19.25 38.460938 19.25 C 38.539062 19.25 38.621094 19.230469 38.695312 19.1875 L 50.425781 12.601562 C 50.652344 12.472656 50.914062 12.441406 51.164062 12.519531 Z M 51.164062 12.519531 " fill-opacity="1" fill-rule="nonzero"/></g><path fill="#ef9d26" d="M 48.632812 48.890625 C 49.34375 48.890625 49.925781 49.464844 49.925781 50.175781 C 49.925781 50.890625 49.34375 51.464844 48.632812 51.464844 C 47.921875 51.464844 47.347656 50.890625 47.347656 50.175781 C 47.347656 49.464844 47.921875 48.890625 48.632812 48.890625 Z M 48.632812 48.890625 " fill-opacity="1" fill-rule="nonzero"/><path fill="#ef9d26" d="M 45.410156 54.644531 C 45.410156 54.8125 45.378906 54.976562 45.3125 55.136719 C 45.246094 55.292969 45.15625 55.433594 45.035156 55.554688 C 44.914062 55.675781 44.773438 55.765625 44.617188 55.832031 C 44.460938 55.898438 44.292969 55.929688 44.125 55.929688 C 43.953125 55.929688 43.789062 55.898438 43.632812 55.832031 C 43.472656 55.765625 43.335938 55.675781 43.214844 55.554688 C 43.09375 55.433594 43 55.292969 42.933594 55.136719 C 42.871094 54.976562 42.835938 54.8125 42.835938 54.644531 C 42.835938 54.472656 42.871094 54.308594 42.933594 54.152344 C 43 53.992188 43.09375 53.855469 43.214844 53.734375 C 43.335938 53.613281 43.472656 53.519531 43.632812 53.453125 C 43.789062 53.390625 43.953125 53.355469 44.125 53.355469 C 44.292969 53.355469 44.460938 53.390625 44.617188 53.453125 C 44.773438 53.519531 44.914062 53.613281 45.035156 53.734375 C 45.15625 53.855469 45.246094 53.992188 45.3125 54.152344 C 45.378906 54.308594 45.410156 54.472656 45.410156 54.644531 Z M 45.410156 54.644531 " fill-opacity="1" fill-rule="nonzero"/><path fill="#ef9d26" d="M 54.433594 54.644531 C 54.433594 54.8125 54.402344 54.976562 54.335938 55.136719 C 54.273438 55.292969 54.179688 55.433594 54.058594 55.554688 C 53.9375 55.675781 53.796875 55.765625 53.640625 55.832031 C 53.484375 55.898438 53.320312 55.929688 53.148438 55.929688 C 52.976562 55.929688 52.8125 55.898438 52.65625 55.832031 C 52.5 55.765625 52.359375 55.675781 52.238281 55.554688 C 52.117188 55.433594 52.023438 55.292969 51.960938 55.136719 C 51.894531 54.976562 51.859375 54.8125 51.859375 54.644531 C 51.859375 54.472656 51.894531 54.308594 51.960938 54.152344 C 52.023438 53.992188 52.117188 53.855469 52.238281 53.734375 C 52.359375 53.613281 52.5 53.519531 52.65625 53.453125 C 52.8125 53.390625 52.976562 53.355469 53.148438 53.355469 C 53.320312 53.355469 53.484375 53.390625 53.640625 53.453125 C 53.796875 53.519531 53.9375 53.613281 54.058594 53.734375 C 54.179688 53.855469 54.273438 53.992188 54.335938 54.152344 C 54.402344 54.308594 54.433594 54.472656 54.433594 54.644531 Z M 54.433594 54.644531 " fill-opacity="1" fill-rule="nonzero"/><path fill="#ef9d26" d="M 48.632812 57.824219 C 49.34375 57.824219 49.925781 58.402344 49.925781 59.113281 C 49.925781 59.820312 49.34375 60.402344 48.632812 60.402344 C 47.921875 60.402344 47.347656 59.820312 47.347656 59.113281 C 47.347656 58.402344 47.921875 57.824219 48.632812 57.824219 Z M 48.632812 57.824219 " fill-opacity="1" fill-rule="nonzero"/><path fill="#ef9d26" d="M 45.410156 63.582031 C 45.410156 63.75 45.378906 63.914062 45.3125 64.074219 C 45.246094 64.230469 45.15625 64.371094 45.035156 64.492188 C 44.914062 64.613281 44.773438 64.703125 44.617188 64.769531 C 44.460938 64.835938 44.292969 64.867188 44.125 64.867188 C 43.953125 64.867188 43.789062 64.835938 43.632812 64.769531 C 43.472656 64.703125 43.335938 64.613281 43.214844 64.492188 C 43.09375 64.371094 43 64.230469 42.933594 64.074219 C 42.871094 63.914062 42.835938 63.75 42.835938 63.582031 C 42.835938 63.410156 42.871094 63.246094 42.933594 63.089844 C 43 62.929688 43.09375 62.792969 43.214844 62.671875 C 43.335938 62.550781 43.472656 62.457031 43.632812 62.390625 C 43.789062 62.328125 43.953125 62.292969 44.125 62.292969 C 44.292969 62.292969 44.460938 62.328125 44.617188 62.390625 C 44.773438 62.457031 44.914062 62.550781 45.035156 62.671875 C 45.15625 62.792969 45.246094 62.929688 45.3125 63.089844 C 45.378906 63.246094 45.410156 63.410156 45.410156 63.582031 Z M 45.410156 63.582031 " fill-opacity="1" fill-rule="nonzero"/><path fill="#ef9d26" d="M 54.433594 63.582031 C 54.433594 63.75 54.402344 63.914062 54.335938 64.074219 C 54.273438 64.230469 54.179688 64.371094 54.058594 64.492188 C 53.9375 64.613281 53.796875 64.703125 53.640625 64.769531 C 53.484375 64.835938 53.320312 64.867188 53.148438 64.867188 C 52.976562 64.867188 52.8125 64.835938 52.65625 64.769531 C 52.5 64.703125 52.359375 64.613281 52.238281 64.492188 C 52.117188 64.371094 52.023438 64.230469 51.960938 64.074219 C 51.894531 63.914062 51.859375 63.75 51.859375 63.582031 C 51.859375 63.410156 51.894531 63.246094 51.960938 63.089844 C 52.023438 62.929688 52.117188 62.792969 52.238281 62.671875 C 52.359375 62.550781 52.5 62.457031 52.65625 62.390625 C 52.8125 62.328125 52.976562 62.292969 53.148438 62.292969 C 53.320312 62.292969 53.484375 62.328125 53.640625 62.390625 C 53.796875 62.457031 53.9375 62.550781 54.058594 62.671875 C 54.179688 62.792969 54.273438 62.929688 54.335938 63.089844 C 54.402344 63.246094 54.433594 63.410156 54.433594 63.582031 Z M 54.433594 63.582031 " fill-opacity="1" fill-rule="nonzero"/><g clip-path="url(#8d0eda3ae6)"><path fill="#c84242" d="M 64.210938 11.75 L 67.5 11.75 L 67.5 35.367188 L 64.210938 35.367188 Z M 64.210938 11.75 " fill-opacity="1" fill-rule="nonzero"/></g><g clip-path="url(#1d3520e7bb)"><path fill="#8ecaef" d="M 65.25 7.5 L 62.875 11.027344 L 61.941406 9.347656 L 61 7.664062 Z M 65.25 7.5 " fill-opacity="1" fill-rule="nonzero"/></g><path fill="#8ecaef" d="M 60.246094 62.878906 L 63.832031 62.878906 L 63.832031 64.6875 L 60.246094 64.6875 Z M 60.246094 62.878906 " fill-opacity="1" fill-rule="nonzero"/><path fill="#52a7d7" d="M 60.246094 52.460938 L 63.832031 52.460938 L 63.832031 62.878906 L 60.246094 62.878906 Z M 60.246094 52.460938 " fill-opacity="1" fill-rule="nonzero"/><path fill="#2f84b9" d="M 60.246094 43.75 L 63.832031 43.75 L 63.832031 52.460938 L 60.246094 52.460938 Z M 60.246094 43.75 " fill-opacity="1" fill-rule="nonzero"/><path fill="#8ecaef" d="M 60.246094 41.820312 L 63.832031 41.820312 L 63.832031 43.75 L 60.246094 43.75 Z M 60.246094 41.820312 " fill-opacity="1" fill-rule="nonzero"/><path fill="#52a7d7" d="M 62.960938 39.5 L 63.832031 41.820312 L 60.246094 41.820312 L 61.121094 39.5 C 61.28125 39.074219 61.664062 38.859375 62.042969 38.859375 C 62.417969 38.859375 62.800781 39.074219 62.960938 39.5 Z M 62.960938 39.5 " fill-opacity="1" fill-rule="nonzero"/><g clip-path="url(#d4470b0d0c)"><path fill="#2f84b9" d="M 63.0625 64.6875 L 63.0625 66.453125 C 63.0625 67.019531 62.601562 67.476562 62.042969 67.476562 C 61.761719 67.476562 61.503906 67.363281 61.320312 67.175781 C 61.132812 66.992188 61.019531 66.734375 61.019531 66.453125 L 61.019531 64.6875 Z M 63.0625 64.6875 " fill-opacity="1" fill-rule="nonzero"/></g><g clip-path="url(#3d0e79a37d)"><path fill="#4d727a" d="M 56.855469 41.648438 L 56.855469 64.863281 C 56.855469 66.125 55.832031 67.148438 54.574219 67.148438 L 42.695312 67.148438 C 41.4375 67.148438 40.417969 66.125 40.417969 64.863281 L 40.417969 41.648438 C 40.417969 40.390625 41.4375 39.367188 42.695312 39.367188 L 54.574219 39.367188 C 55.832031 39.367188 56.855469 40.390625 56.855469 41.648438 Z M 54.433594 45.945312 L 54.433594 42.359375 L 42.835938 42.359375 L 42.835938 45.945312 Z M 54.433594 50.175781 C 54.433594 49.464844 53.859375 48.890625 53.148438 48.890625 C 52.4375 48.890625 51.859375 49.464844 51.859375 50.175781 C 51.859375 50.890625 52.4375 51.464844 53.148438 51.464844 C 53.859375 51.464844 54.433594 50.890625 54.433594 50.175781 Z M 54.433594 54.644531 C 54.433594 53.933594 53.859375 53.355469 53.148438 53.355469 C 52.4375 53.355469 51.859375 53.933594 51.859375 54.644531 C 51.859375 55.355469 52.4375 55.929688 53.148438 55.929688 C 53.859375 55.929688 54.433594 55.355469 54.433594 54.644531 Z M 54.433594 59.113281 C 54.433594 58.402344 53.859375 57.824219 53.148438 57.824219 C 52.4375 57.824219 51.859375 58.402344 51.859375 59.113281 C 51.859375 59.820312 52.4375 60.402344 53.148438 60.402344 C 53.859375 60.402344 54.433594 59.820312 54.433594 59.113281 Z M 54.433594 63.582031 C 54.433594 62.871094 53.859375 62.292969 53.148438 62.292969 C 52.4375 62.292969 51.859375 62.871094 51.859375 63.582031 C 51.859375 64.292969 52.4375 64.867188 53.148438 64.867188 C 53.859375 64.867188 54.433594 64.292969 54.433594 63.582031 Z M 49.925781 50.175781 C 49.925781 49.464844 49.34375 48.890625 48.632812 48.890625 C 47.921875 48.890625 47.347656 49.464844 47.347656 50.175781 C 47.347656 50.890625 47.921875 51.464844 48.632812 51.464844 C 49.34375 51.464844 49.925781 50.890625 49.925781 50.175781 Z M 49.925781 54.644531 C 49.925781 53.933594 49.34375 53.355469 48.632812 53.355469 C 47.921875 53.355469 47.347656 53.933594 47.347656 54.644531 C 47.347656 55.355469 47.921875 55.929688 48.632812 55.929688 C 49.34375 55.929688 49.925781 55.355469 49.925781 54.644531 Z M 49.925781 59.113281 C 49.925781 58.402344 49.34375 57.824219 48.632812 57.824219 C 47.921875 57.824219 47.347656 58.402344 47.347656 59.113281 C 47.347656 59.820312 47.921875 60.402344 48.632812 60.402344 C 49.34375 60.402344 49.925781 59.820312 49.925781 59.113281 Z M 49.925781 63.582031 C 49.925781 62.871094 49.34375 62.292969 48.632812 62.292969 C 47.921875 62.292969 47.347656 62.871094 47.347656 63.582031 C 47.347656 64.292969 47.921875 64.867188 48.632812 64.867188 C 49.34375 64.867188 49.925781 64.292969 49.925781 63.582031 Z M 45.410156 50.175781 C 45.410156 49.464844 44.835938 48.890625 44.125 48.890625 C 43.414062 48.890625 42.835938 49.464844 42.835938 50.175781 C 42.835938 50.890625 43.414062 51.464844 44.125 51.464844 C 44.835938 51.464844 45.410156 50.890625 45.410156 50.175781 Z M 45.410156 54.644531 C 45.410156 53.933594 44.835938 53.355469 44.125 53.355469 C 43.414062 53.355469 42.835938 53.933594 42.835938 54.644531 C 42.835938 55.355469 43.414062 55.929688 44.125 55.929688 C 44.835938 55.929688 45.410156 55.355469 45.410156 54.644531 Z M 45.410156 59.113281 C 45.410156 58.402344 44.835938 57.824219 44.125 57.824219 C 43.414062 57.824219 42.835938 58.402344 42.835938 59.113281 C 42.835938 59.820312 43.414062 60.402344 44.125 60.402344 C 44.835938 60.402344 45.410156 59.820312 45.410156 59.113281 Z M 45.410156 63.582031 C 45.410156 62.871094 44.835938 62.292969 44.125 62.292969 C 43.414062 62.292969 42.835938 62.871094 42.835938 63.582031 C 42.835938 64.292969 43.414062 64.867188 44.125 64.867188 C 44.835938 64.867188 45.410156 64.292969 45.410156 63.582031 Z M 45.410156 63.582031 " fill-opacity="1" fill-rule="nonzero"/></g><path fill="#c84242" d="M 52.800781 26 L 56.085938 26 L 56.085938 35.367188 L 52.800781 35.367188 Z M 52.800781 26 " fill-opacity="1" fill-rule="nonzero"/><path fill="#c2e6f9" d="M 42.835938 42.359375 L 54.433594 42.359375 L 54.433594 45.945312 L 42.835938 45.945312 Z M 42.835938 42.359375 " fill-opacity="1" fill-rule="nonzero"/><path fill="#c84242" d="M 41.386719 23.019531 L 44.675781 23.019531 L 44.675781 35.367188 L 41.386719 35.367188 Z M 41.386719 23.019531 " fill-opacity="1" fill-rule="nonzero"/><path fill="#4d727a" d="M 37.941406 55.699219 C 38.070312 55.90625 38.132812 56.140625 38.132812 56.367188 C 38.132812 56.742188 37.960938 57.101562 37.636719 57.304688 C 37.113281 57.632812 36.40625 57.441406 36.054688 56.878906 L 34.980469 55.160156 L 34.980469 55.15625 L 32.660156 51.445312 L 34.546875 50.265625 L 34.980469 50.957031 L 34.980469 50.960938 Z M 37.941406 55.699219 " fill-opacity="1" fill-rule="nonzero"/><g clip-path="url(#36f2c6b04a)"><path fill="#eaebec" d="M 21.269531 45.953125 C 23.628906 48.195312 27.160156 48.832031 30.179688 47.476562 L 32.660156 51.445312 L 34.980469 55.15625 L 34.980469 57.828125 L 7.5 57.828125 L 7.5 21.046875 L 13.175781 21.34375 L 12.910156 15.417969 L 34.980469 15.417969 L 34.980469 40.066406 C 34.980469 38.59375 34.582031 37.109375 33.746094 35.769531 C 31.371094 31.96875 26.359375 30.8125 22.5625 33.1875 C 22.398438 33.289062 22.238281 33.402344 22.082031 33.507812 C 20.628906 34.566406 19.617188 36.039062 19.113281 37.660156 C 18.695312 38.984375 18.628906 40.417969 18.933594 41.804688 C 19.121094 42.691406 19.472656 43.558594 19.980469 44.371094 C 20.351562 44.964844 20.785156 45.492188 21.269531 45.953125 Z M 21.269531 45.953125 " fill-opacity="1" fill-rule="nonzero"/></g><path fill="#93b2b8" d="M 34.546875 50.265625 L 32.660156 51.445312 L 30.179688 47.476562 C 30.519531 47.328125 30.847656 47.148438 31.167969 46.949219 C 31.484375 46.75 31.785156 46.535156 32.066406 46.296875 Z M 34.546875 50.265625 " fill-opacity="1" fill-rule="nonzero"/><path fill="#c2e6f9" d="M 26.863281 33.910156 C 30.265625 33.910156 33.023438 36.667969 33.023438 40.070312 C 33.023438 43.472656 30.265625 46.230469 26.863281 46.230469 C 23.464844 46.230469 20.703125 43.472656 20.703125 40.070312 C 20.703125 36.667969 23.464844 33.910156 26.863281 33.910156 Z M 29.246094 43.785156 C 30.65625 43.03125 31.398438 41.75 31.382812 40.070312 C 31.378906 39.59375 31.039062 39.195312 30.570312 39.121094 C 30.519531 39.109375 30.464844 39.105469 30.40625 39.105469 C 29.875 39.109375 29.445312 39.550781 29.449219 40.082031 C 29.457031 41.035156 29.101562 41.671875 28.335938 42.078125 C 27.859375 42.328125 27.6875 42.917969 27.9375 43.390625 C 28.078125 43.660156 28.335938 43.839844 28.636719 43.886719 C 28.847656 43.921875 29.054688 43.886719 29.246094 43.785156 Z M 29.246094 43.785156 " fill-opacity="1" fill-rule="nonzero"/><path fill="#52a7d7" d="M 31.382812 40.070312 C 31.398438 41.75 30.65625 43.03125 29.246094 43.785156 C 29.054688 43.886719 28.847656 43.921875 28.636719 43.886719 C 28.335938 43.839844 28.078125 43.660156 27.9375 43.390625 C 27.6875 42.917969 27.859375 42.328125 28.335938 42.078125 C 29.101562 41.671875 29.457031 41.035156 29.449219 40.082031 C 29.445312 39.550781 29.875 39.109375 30.40625 39.105469 C 30.464844 39.105469 30.519531 39.109375 30.570312 39.121094 C 31.039062 39.195312 31.378906 39.59375 31.382812 40.070312 Z M 31.382812 40.070312 " fill-opacity="1" fill-rule="nonzero"/><g clip-path="url(#3ee987a7d4)"><path fill="#9c9d9c" d="M 12.910156 15.417969 L 13.175781 21.34375 L 7.5 21.046875 Z M 12.910156 15.417969 " fill-opacity="1" fill-rule="nonzero"/></g><path fill="#9c9d9c" d="M 32.660156 20.65625 L 23.488281 20.65625 C 23.21875 20.65625 23.003906 20.441406 23.003906 20.171875 C 23.003906 19.90625 23.21875 19.6875 23.488281 19.6875 L 32.660156 19.6875 C 32.929688 19.6875 33.144531 19.90625 33.144531 20.171875 C 33.144531 20.441406 32.929688 20.65625 32.660156 20.65625 Z M 32.660156 20.65625 " fill-opacity="1" fill-rule="nonzero"/><path fill="#9c9d9c" d="M 31.210938 25.699219 L 11.851562 25.699219 C 11.582031 25.699219 11.367188 25.480469 11.367188 25.214844 C 11.367188 24.949219 11.582031 24.730469 11.851562 24.730469 L 31.210938 24.730469 C 31.476562 24.730469 31.695312 24.949219 31.695312 25.214844 C 31.695312 25.480469 31.476562 25.699219 31.210938 25.699219 Z M 31.210938 25.699219 " fill-opacity="1" fill-rule="nonzero"/><path fill="#9c9d9c" d="M 31.210938 29.84375 L 11.851562 29.84375 C 11.582031 29.84375 11.367188 29.628906 11.367188 29.359375 C 11.367188 29.09375 11.582031 28.878906 11.851562 28.878906 L 31.210938 28.878906 C 31.476562 28.878906 31.695312 29.09375 31.695312 29.359375 C 31.695312 29.628906 31.476562 29.84375 31.210938 29.84375 Z M 31.210938 29.84375 " fill-opacity="1" fill-rule="nonzero"/><path fill="#9c9d9c" d="M 22.082031 33.992188 L 11.851562 33.992188 C 11.582031 33.992188 11.367188 33.773438 11.367188 33.507812 C 11.367188 33.242188 11.582031 33.023438 11.851562 33.023438 L 22.082031 33.023438 C 22.351562 33.023438 22.566406 33.242188 22.566406 33.507812 C 22.566406 33.773438 22.351562 33.992188 22.082031 33.992188 Z M 22.082031 33.992188 " fill-opacity="1" fill-rule="nonzero"/><path fill="#9c9d9c" d="M 19.113281 38.144531 L 11.851562 38.144531 C 11.582031 38.144531 11.367188 37.925781 11.367188 37.660156 C 11.367188 37.390625 11.582031 37.175781 11.851562 37.175781 L 19.113281 37.175781 C 19.378906 37.175781 19.597656 37.390625 19.597656 37.660156 C 19.597656 37.925781 19.378906 38.144531 19.113281 38.144531 Z M 19.113281 38.144531 " fill-opacity="1" fill-rule="nonzero"/><path fill="#9c9d9c" d="M 18.933594 42.289062 L 11.851562 42.289062 C 11.582031 42.289062 11.367188 42.074219 11.367188 41.804688 C 11.367188 41.539062 11.582031 41.324219 11.851562 41.324219 L 18.933594 41.324219 C 19.199219 41.324219 19.417969 41.539062 19.417969 41.804688 C 19.417969 42.074219 19.199219 42.289062 18.933594 42.289062 Z M 18.933594 42.289062 " fill-opacity="1" fill-rule="nonzero"/><path fill="#9c9d9c" d="M 21.269531 46.4375 L 11.851562 46.4375 C 11.582031 46.4375 11.367188 46.21875 11.367188 45.953125 C 11.367188 45.6875 11.582031 45.46875 11.851562 45.46875 L 21.269531 45.46875 C 21.539062 45.46875 21.753906 45.6875 21.753906 45.953125 C 21.753906 46.21875 21.539062 46.4375 21.269531 46.4375 Z M 21.269531 46.4375 " fill-opacity="1" fill-rule="nonzero"/><path fill="#52a7d7" d="M 62.042969 39.34375 C 61.773438 39.34375 61.558594 39.125 61.558594 38.859375 L 61.558594 36.871094 C 61.558594 36.605469 61.773438 36.386719 62.042969 36.386719 C 62.308594 36.386719 62.527344 36.605469 62.527344 36.871094 L 62.527344 38.859375 C 62.527344 39.125 62.308594 39.34375 62.042969 39.34375 Z M 62.042969 39.34375 " fill-opacity="1" fill-rule="nonzero"/><path fill="#c2e6f9" d="M 64.160156 65.171875 L 63.832031 65.171875 C 63.566406 65.171875 63.347656 64.957031 63.347656 64.6875 C 63.347656 64.421875 63.566406 64.203125 63.832031 64.203125 L 64.160156 64.203125 C 64.664062 64.203125 65.070312 63.800781 65.070312 63.300781 L 65.070312 56.574219 C 65.070312 56.308594 65.289062 56.089844 65.554688 56.089844 C 65.820312 56.089844 66.039062 56.308594 66.039062 56.574219 L 66.039062 63.300781 C 66.039062 64.332031 65.195312 65.171875 64.160156 65.171875 Z M 64.160156 65.171875 " fill-opacity="1" fill-rule="nonzero"/><path fill="#8ecaef" d="M 38.457031 19.25 C 38.289062 19.25 38.125 19.160156 38.035156 19 C 37.90625 18.769531 37.988281 18.472656 38.222656 18.34375 L 49.949219 11.757812 C 50.40625 11.5 50.9375 11.441406 51.445312 11.59375 C 51.953125 11.746094 52.363281 12.089844 52.605469 12.5625 C 52.769531 12.890625 53.09375 13.089844 53.457031 13.089844 C 53.617188 13.089844 53.765625 13.054688 53.894531 12.984375 L 61.714844 8.917969 C 61.953125 8.796875 62.246094 8.890625 62.371094 9.125 C 62.492188 9.363281 62.402344 9.65625 62.164062 9.777344 L 54.34375 13.84375 C 54.074219 13.984375 53.773438 14.054688 53.457031 14.054688 C 52.726562 14.054688 52.070312 13.652344 51.742188 13 C 51.625 12.765625 51.417969 12.59375 51.164062 12.519531 C 50.914062 12.441406 50.652344 12.472656 50.425781 12.601562 L 38.695312 19.1875 C 38.621094 19.230469 38.539062 19.25 38.457031 19.25 Z M 38.457031 19.25 " fill-opacity="1" fill-rule="nonzero"/><path fill="#4d727a" d="M 33.746094 35.769531 C 34.582031 37.109375 34.980469 38.59375 34.980469 40.066406 C 34.980469 42.421875 33.957031 44.722656 32.066406 46.296875 C 31.785156 46.535156 31.484375 46.75 31.167969 46.949219 C 30.847656 47.148438 30.519531 47.328125 30.179688 47.476562 C 27.160156 48.832031 23.628906 48.195312 21.269531 45.953125 C 20.785156 45.492188 20.351562 44.964844 19.980469 44.371094 C 19.472656 43.558594 19.121094 42.691406 18.933594 41.804688 C 18.628906 40.417969 18.695312 38.984375 19.113281 37.660156 C 19.617188 36.039062 20.628906 34.566406 22.082031 33.507812 C 22.238281 33.402344 22.398438 33.289062 22.5625 33.1875 C 26.359375 30.8125 31.371094 31.96875 33.746094 35.769531 Z M 33.023438 40.070312 C 33.023438 36.667969 30.265625 33.910156 26.863281 33.910156 C 23.464844 33.910156 20.703125 36.667969 20.703125 40.070312 C 20.703125 43.472656 23.464844 46.230469 26.863281 46.230469 C 30.265625 46.230469 33.023438 43.472656 33.023438 40.070312 Z M 33.023438 40.070312 " fill-opacity="1" fill-rule="nonzero"/></svg>